<?xml version="1.0" encoding="UTF-8"?>
<svg version="1.1" xmlns="http://www.w3.org/2000/svg" width="624" height="518">
<path d="M0 0 C17.69923814 16.25003877 17.69923814 16.25003877 19.91015625 20.671875 C20.57015625 20.671875 21.23015625 20.671875 21.91015625 20.671875 C23.30838596 19.28895481 23.30838596 19.28895481 24.78515625 17.421875 C50.7566702 -12.87822461 87.2302001 -31.0689627 126.91015625 -35.015625 C170.35460471 -37.82604754 210.83802853 -24.70632447 243.7109375 3.94140625 C250.83102593 10.30679175 257.16444501 17.02144996 262.91015625 24.671875 C263.69648437 25.68121094 264.4828125 26.69054687 265.29296875 27.73046875 C286.95057361 56.17022241 297.39290596 91.45828587 297.22265625 126.921875 C297.22116577 127.69156616 297.21967529 128.46125732 297.21813965 129.25427246 C297.17848641 140.64895629 296.63243875 151.5724399 293.91015625 162.671875 C293.62011719 163.93773437 293.33007812 165.20359375 293.03125 166.5078125 C286.55195796 192.80452078 273.37927807 214.20300499 255.91015625 234.671875 C255.01124829 235.74439754 254.11283695 236.81733644 253.21484375 237.890625 C241.63939123 251.64875365 229.1607204 264.50904711 216.47265625 277.234375 C215.95828003 277.75143005 215.44390381 278.26848511 214.91394043 278.8012085 C209.68742379 284.04839072 204.43328103 289.20531247 198.80297852 294.02416992 C195.29208168 297.08041173 191.96339709 300.33280337 188.59765625 303.546875 C183.06780414 308.79360636 177.4850311 313.79394868 171.515625 318.53515625 C168.54315265 320.97285097 165.72242555 323.55375631 162.91015625 326.171875 C158.3817677 330.3810469 153.71038257 334.3463135 148.89453125 338.22265625 C145.31738995 341.15834682 141.83281366 344.19061873 138.34765625 347.234375 C133.51906087 351.44302631 128.64997965 355.56287232 123.6171875 359.52734375 C120.10280851 362.31146217 116.63402424 365.14998749 113.16015625 367.984375 C106.37664701 373.50826018 99.52710565 378.94067942 92.63232422 384.32470703 C90.87953389 385.69582938 89.13059757 387.07172304 87.3828125 388.44921875 C80.25641836 394.06547494 73.10071153 399.64139407 65.89355469 405.15380859 C64.43499225 406.27017261 62.9774597 407.38788255 61.52050781 408.50634766 C51.73165769 416.01970335 41.94199992 423.49724305 31.8203125 430.55859375 C29.64074897 432.1413372 27.80362816 433.69119044 25.84375 435.50390625 C22.91015625 437.671875 22.91015625 437.671875 20.5234375 437.84765625 C16.59622578 436.08070449 13.4488599 433.53850499 10.09765625 430.859375 C8.57091645 429.66459243 7.04355854 428.47059934 5.515625 427.27734375 C4.74524902 426.67196777 3.97487305 426.0665918 3.18115234 425.44287109 C-0.20517267 422.80210549 -3.64545581 420.23614035 -7.08984375 417.671875 C-19.65355832 408.27745574 -32.09115215 398.72547044 -44.40136719 389.00146484 C-46.08747985 387.67373645 -47.77911157 386.353388 -49.47265625 385.03515625 C-58.16942612 378.25664533 -66.69016695 371.27819717 -75.18310547 364.24658203 C-77.7254345 362.14696331 -80.28229283 360.06540988 -82.83984375 357.984375 C-87.35543617 354.29664119 -91.80728134 350.53826143 -96.24829102 346.76147461 C-99.72284099 343.81169686 -103.23469019 340.91497535 -106.77734375 338.046875 C-111.16711022 334.47661631 -115.36812068 330.74304995 -119.546875 326.9296875 C-122.22761599 324.54955187 -124.98488509 322.29455659 -127.77734375 320.046875 C-131.56179341 316.98529775 -135.05472389 313.82623999 -138.4375 310.33203125 C-140.13347969 308.62803274 -141.89474071 307.05473417 -143.71484375 305.484375 C-152.13389563 298.20966026 -160.237103 290.60716935 -168.046875 282.68359375 C-170.00029854 280.76005049 -172.01026464 278.95728968 -174.08984375 277.171875 C-180.69869796 271.48274205 -186.67260419 265.25087264 -192.34375 258.63671875 C-194.74193376 255.93809139 -197.30595899 253.42872925 -199.90234375 250.921875 C-203.10571201 247.62698193 -206.08841884 244.15037949 -209.08984375 240.671875 C-209.90606201 239.73142334 -209.90606201 239.73142334 -210.73876953 238.77197266 C-243.4708878 200.80191882 -257.36221112 160.7692167 -255.08984375 110.671875 C-251.50345479 69.13390983 -230.80762149 28.68640728 -199.33984375 1.32421875 C-193.28108458 -3.73162082 -186.7496449 -8.11062243 -180.08984375 -12.328125 C-179.45062988 -12.73305176 -178.81141602 -13.13797852 -178.15283203 -13.55517578 C-123.34088701 -47.63506872 -49.08657158 -41.57564332 0 0 Z M-184.08984375 31.671875 C-184.75757813 32.26613281 -185.4253125 32.86039063 -186.11328125 33.47265625 C-208.60887948 54.7537034 -222.24599291 87.8880977 -223.4140625 118.46875 C-224.18373413 152.67486433 -215.65312932 181.0467853 -194.08984375 207.671875 C-193.35894531 208.59613281 -192.62804687 209.52039063 -191.875 210.47265625 C-186.41110791 217.30005124 -180.54397869 223.69555612 -174.57324219 230.07519531 C-172.30161449 232.5202982 -170.07581201 235.00668044 -167.83984375 237.484375 C-163.30638307 242.43236111 -158.63842123 247.23019996 -153.90234375 251.984375 C-153.24911133 252.64219971 -152.59587891 253.30002441 -151.92285156 253.9777832 C-148.02729046 257.86107868 -144.0094663 261.53923699 -139.84643555 265.13354492 C-137.834104 266.89583833 -135.94753263 268.74784009 -134.08984375 270.671875 C-130.96138411 273.84277498 -127.72129023 276.7975746 -124.34375 279.69921875 C-122.13008765 281.63665287 -119.96759353 283.62316688 -117.8112793 285.62402344 C-112.62680195 290.4330532 -107.316149 294.98972687 -101.8046875 299.42578125 C-98.9831088 301.7601809 -96.28393663 304.19178098 -93.58984375 306.671875 C-89.19605827 310.71142318 -84.67145551 314.51867119 -80.02734375 318.265625 C-76.72630594 320.96966661 -73.50229674 323.75310357 -70.27734375 326.546875 C-65.14413732 330.98035318 -59.90387562 335.2339619 -54.54492188 339.390625 C-49.87936787 343.01996204 -45.32242244 346.76820508 -40.77734375 350.546875 C-34.40779675 355.83185996 -27.91982834 360.92532967 -21.32055664 365.91967773 C-16.71980993 369.40637552 -12.19951975 372.9750433 -7.71484375 376.609375 C-1.86026704 381.32390436 4.08432723 385.91159259 10.09765625 390.421875 C10.91218262 391.04312256 11.72670898 391.66437012 12.56591797 392.30444336 C13.33307129 392.87428955 14.10022461 393.44413574 14.890625 394.03125 C15.90999146 394.79646973 15.90999146 394.79646973 16.94995117 395.57714844 C19.11800825 396.99693487 19.11800825 396.99693487 22.91015625 396.671875 C25.09590317 395.43169249 25.09590317 395.43169249 27.26171875 393.6640625 C28.10404053 393.01397217 28.9463623 392.36388184 29.81420898 391.6940918 C30.71212158 390.98551025 31.61003418 390.27692871 32.53515625 389.546875 C33.467229 388.82346924 34.39930176 388.10006348 35.35961914 387.35473633 C37.28384708 385.85963982 39.20480984 384.3603319 41.12255859 382.85693359 C43.67635957 380.85513655 46.23814512 378.8643248 48.8046875 376.87890625 C52.50710825 374.01290886 56.20074503 371.13594815 59.88916016 368.25195312 C61.7841363 366.77040135 63.68100877 365.2913096 65.578125 363.8125 C74.45099355 356.88258632 83.1930913 349.7963542 91.91015625 342.671875 C92.92335938 341.84429687 93.9365625 341.01671875 94.98046875 340.1640625 C96.77050784 338.7004123 98.55961365 337.23561975 100.34765625 335.76953125 C102.07357416 334.35669906 103.80281527 332.94791791 105.53515625 331.54296875 C111.3424593 326.82453502 117.04833249 322.00307048 122.71362305 317.11621094 C126.2736426 314.05208782 129.87667414 311.05619272 133.53515625 308.109375 C137.99296063 304.49476236 142.22434947 300.67371053 146.42138672 296.76416016 C149.73197461 293.69856222 153.13907358 290.8099952 156.66015625 287.984375 C160.71047473 284.72436257 164.39758743 281.29888075 168.015625 277.5703125 C169.91021553 275.6718156 171.87528033 273.9183122 173.91015625 272.171875 C177.33798222 269.22608705 180.52150442 266.11012153 183.66015625 262.859375 C185.55825986 261.01399649 187.4925556 259.29673556 189.5 257.57421875 C194.72719016 253.03204587 199.58846552 248.13948303 204.47265625 243.234375 C205.37951172 242.33138672 206.28636719 241.42839844 207.22070312 240.49804688 C211.78943724 235.92268661 216.22285208 231.29430637 220.43237305 226.38598633 C222.39923464 224.10458285 224.47024229 221.92697798 226.53515625 219.734375 C241.0876281 203.720011 253.40473649 186.44445852 259.91015625 165.671875 C260.1097998 165.03701172 260.30944336 164.40214844 260.51513672 163.74804688 C270.88090848 129.63284867 265.66665385 92.76383185 249.109375 61.52734375 C243.39617155 51.23321345 236.03845044 42.1505267 227.91015625 33.671875 C227.141875 32.84042969 226.37359375 32.00898437 225.58203125 31.15234375 C219.3310755 24.58884022 212.48432569 19.5490387 204.91015625 14.671875 C204.07742188 14.11628906 203.2446875 13.56070313 202.38671875 12.98828125 C177.59867636 -2.86453655 144.79093711 -7.17371676 116.265625 -1.35546875 C95.97204285 3.24283001 77.80608931 12.26181957 61.91015625 25.671875 C60.79447266 26.56132813 60.79447266 26.56132813 59.65625 27.46875 C53.92367921 32.18045202 49.41840052 37.80622141 44.91015625 43.671875 C44.348125 44.39503906 43.78609375 45.11820313 43.20703125 45.86328125 C37.10002057 54.14924963 32.28553608 63.32760927 27.25244141 72.28662109 C25.48696438 75.42389111 23.70034723 78.54865399 21.91015625 81.671875 C19.60724253 78.72950145 17.70947068 75.70417375 15.87109375 72.453125 C6.82705403 56.43204194 6.82705403 56.43204194 -4.08984375 41.671875 C-4.87617188 40.73601562 -5.6625 39.80015625 -6.47265625 38.8359375 C-27.79245788 14.44180711 -59.21662676 -0.98604599 -91.51953125 -3.19921875 C-92.79183594 -3.26302734 -92.79183594 -3.26302734 -94.08984375 -3.328125 C-94.87617188 -3.38097656 -95.6625 -3.43382813 -96.47265625 -3.48828125 C-129.81804045 -4.69038758 -159.75582564 9.99426587 -184.08984375 31.671875 Z " fill="#000000" transform="translate(291.08984375,65.328125)"/>
</svg>
