<?xml version="1.0" encoding="UTF-8"?>
<svg version="1.1" xmlns="http://www.w3.org/2000/svg" width="548" height="455">
<path d="M0 0 C6.45156353 5.57988068 12.79004517 11.21650449 18 18 C18 18.66 18 19.32 18 20 C18.66 20 19.32 20 20 20 C20.24878906 19.43667969 20.49757813 18.87335938 20.75390625 18.29296875 C31.54261119 -1.55960116 59.96146673 -17.41006402 81 -24 C118.55051804 -34.46246808 157.07548713 -32.41156637 191.5 -13.0625 C225.13568986 7.19759389 248.24503997 39.10226697 258 77 C260.29459454 86.5533119 261.6067765 96.18170085 262 106 C262.061875 107.49853516 262.061875 107.49853516 262.125 109.02734375 C262.73693837 139.35653906 254.53150008 168.81256633 236 193 C235.03126953 194.26650391 235.03126953 194.26650391 234.04296875 195.55859375 C232.06721307 198.0735577 230.04598711 200.54184488 228 203 C227.59023926 203.49467773 227.18047852 203.98935547 226.75830078 204.49902344 C215.79257721 217.71318792 204.09216943 230.07474787 191.93774414 242.19262695 C189.80172643 244.32324634 187.67115882 246.45921223 185.54101562 248.59570312 C184.15917493 249.9768835 182.77702433 251.35775389 181.39453125 252.73828125 C180.77036819 253.36446854 180.14620514 253.99065582 179.50312805 254.63581848 C175.73632733 258.38297905 171.85545021 261.94507026 167.82763672 265.41047668 C164.87021543 267.98259074 162.03803426 270.68582451 159.1875 273.375 C154.1665666 278.07829762 149.01660138 282.5218434 143.64453125 286.82421875 C140.84160752 289.130317 138.16996725 291.54151531 135.5 294 C130.17388735 298.89487909 124.63278603 303.46471956 119 308 C117.29025301 309.39410139 115.58194587 310.7899703 113.875 312.1875 C112.97265625 312.92484375 112.0703125 313.6621875 111.140625 314.421875 C108.74788306 316.38185366 106.36505782 318.35351929 103.984375 320.328125 C96.47405485 326.55084012 88.92234324 332.68013476 81.16015625 338.5859375 C77.83055817 341.12943764 74.53799333 343.71569037 71.25 346.3125 C59.1737846 355.82454132 46.95008216 365.12763784 34.50708008 374.15551758 C30.29259914 377.23153897 26.35245223 380.37298267 22.60986328 384.01586914 C21 385 21 385 19.0559082 384.83349609 C16.70954125 383.88224366 14.93875855 382.70819547 12.91015625 381.19140625 C12.13236816 380.61422852 11.35458008 380.03705078 10.55322266 379.44238281 C9.73128418 378.82202148 8.9093457 378.20166016 8.0625 377.5625 C7.21220215 376.92795898 6.3619043 376.29341797 5.48583984 375.63964844 C-1.39444052 370.492767 -8.21208496 365.2678414 -15 360 C-16.06321225 359.18282576 -17.12702391 358.36643085 -18.19140625 357.55078125 C-24.986258 352.34375103 -31.73840863 347.0852181 -38.4609375 341.78515625 C-40.81391238 339.93045076 -43.17344283 338.08464134 -45.5390625 336.24609375 C-51.84448833 331.3370252 -58.03156341 326.32989359 -64.09912109 321.12939453 C-68.04419102 317.76416483 -72.0891196 314.55098135 -76.1875 311.375 C-81.18115976 307.49991457 -85.92779382 303.45407714 -90.58203125 299.171875 C-93.11389197 296.89769962 -95.72358588 294.75823476 -98.375 292.625 C-103.52047548 288.46204105 -108.38000421 284.05158742 -113.23046875 279.5546875 C-115.45918393 277.49886278 -117.70767919 275.48383043 -120 273.5 C-125.43472289 268.77802765 -130.71515049 263.88799909 -136 259 C-136.59312988 258.4534375 -137.18625977 257.906875 -137.79736328 257.34375 C-146.04077005 249.73777573 -154.11845276 241.9810484 -162.0625 234.0625 C-163.24017944 232.89170898 -163.24017944 232.89170898 -164.44165039 231.69726562 C-168.62364286 227.50408298 -172.63772061 223.2244121 -176.50073242 218.7355957 C-178.32225987 216.62694261 -180.22334822 214.59888419 -182.125 212.5625 C-213.23592928 177.95357867 -225.41091829 140.26084401 -223 94 C-222.36598005 87.1422753 -220.92740823 80.60071311 -219 74 C-218.78569336 73.23880859 -218.57138672 72.47761719 -218.35058594 71.69335938 C-215.12972322 60.48832024 -210.56694617 50.22177815 -205 40 C-204.4225 38.91847656 -203.845 37.83695312 -203.25 36.72265625 C-199.22389133 29.48125246 -194.43749168 23.23523498 -189 17 C-188.26652344 16.1440625 -187.53304687 15.288125 -186.77734375 14.40625 C-139.51011775 -39.61343686 -55.18073845 -45.55619105 0 0 Z " fill="#FD5051" transform="translate(255,57)"/>
<path d="M0 0 C6.45156353 5.57988068 12.79004517 11.21650449 18 18 C18 18.66 18 19.32 18 20 C18.66 20 19.32 20 20 20 C20.24878906 19.43667969 20.49757813 18.87335938 20.75390625 18.29296875 C31.54261119 -1.55960116 59.96146673 -17.41006402 81 -24 C118.55051804 -34.46246808 157.07548713 -32.41156637 191.5 -13.0625 C225.13568986 7.19759389 248.24503997 39.10226697 258 77 C260.29459454 86.5533119 261.6067765 96.18170085 262 106 C262.061875 107.49853516 262.061875 107.49853516 262.125 109.02734375 C262.73693837 139.35653906 254.53150008 168.81256633 236 193 C235.03126953 194.26650391 235.03126953 194.26650391 234.04296875 195.55859375 C232.06721307 198.0735577 230.04598711 200.54184488 228 203 C227.59023926 203.49467773 227.18047852 203.98935547 226.75830078 204.49902344 C215.79257721 217.71318792 204.09216943 230.07474787 191.93774414 242.19262695 C189.80172643 244.32324634 187.67115882 246.45921223 185.54101562 248.59570312 C184.15917493 249.9768835 182.77702433 251.35775389 181.39453125 252.73828125 C180.77036819 253.36446854 180.14620514 253.99065582 179.50312805 254.63581848 C175.73632733 258.38297905 171.85545021 261.94507026 167.82763672 265.41047668 C164.87021543 267.98259074 162.03803426 270.68582451 159.1875 273.375 C154.1665666 278.07829762 149.01660138 282.5218434 143.64453125 286.82421875 C140.84160752 289.130317 138.16996725 291.54151531 135.5 294 C130.17388735 298.89487909 124.63278603 303.46471956 119 308 C117.29025301 309.39410139 115.58194587 310.7899703 113.875 312.1875 C112.97265625 312.92484375 112.0703125 313.6621875 111.140625 314.421875 C108.74788306 316.38185366 106.36505782 318.35351929 103.984375 320.328125 C96.47405485 326.55084012 88.92234324 332.68013476 81.16015625 338.5859375 C77.83055817 341.12943764 74.53799333 343.71569037 71.25 346.3125 C59.1737846 355.82454132 46.95008216 365.12763784 34.50708008 374.15551758 C30.29259914 377.23153897 26.35245223 380.37298267 22.60986328 384.01586914 C21 385 21 385 19.0559082 384.83349609 C16.70954125 383.88224366 14.93875855 382.70819547 12.91015625 381.19140625 C12.13236816 380.61422852 11.35458008 380.03705078 10.55322266 379.44238281 C9.73128418 378.82202148 8.9093457 378.20166016 8.0625 377.5625 C7.21220215 376.92795898 6.3619043 376.29341797 5.48583984 375.63964844 C-1.39444052 370.492767 -8.21208496 365.2678414 -15 360 C-16.06321225 359.18282576 -17.12702391 358.36643085 -18.19140625 357.55078125 C-24.986258 352.34375103 -31.73840863 347.0852181 -38.4609375 341.78515625 C-40.81391238 339.93045076 -43.17344283 338.08464134 -45.5390625 336.24609375 C-51.84448833 331.3370252 -58.03156341 326.32989359 -64.09912109 321.12939453 C-68.04419102 317.76416483 -72.0891196 314.55098135 -76.1875 311.375 C-81.18115976 307.49991457 -85.92779382 303.45407714 -90.58203125 299.171875 C-93.11389197 296.89769962 -95.72358588 294.75823476 -98.375 292.625 C-103.52047548 288.46204105 -108.38000421 284.05158742 -113.23046875 279.5546875 C-115.45918393 277.49886278 -117.70767919 275.48383043 -120 273.5 C-125.43472289 268.77802765 -130.71515049 263.88799909 -136 259 C-136.59312988 258.4534375 -137.18625977 257.906875 -137.79736328 257.34375 C-146.04077005 249.73777573 -154.11845276 241.9810484 -162.0625 234.0625 C-163.24017944 232.89170898 -163.24017944 232.89170898 -164.44165039 231.69726562 C-168.62364286 227.50408298 -172.63772061 223.2244121 -176.50073242 218.7355957 C-178.32225987 216.62694261 -180.22334822 214.59888419 -182.125 212.5625 C-213.23592928 177.95357867 -225.41091829 140.26084401 -223 94 C-222.36598005 87.1422753 -220.92740823 80.60071311 -219 74 C-218.78569336 73.23880859 -218.57138672 72.47761719 -218.35058594 71.69335938 C-215.12972322 60.48832024 -210.56694617 50.22177815 -205 40 C-204.4225 38.91847656 -203.845 37.83695312 -203.25 36.72265625 C-199.22389133 29.48125246 -194.43749168 23.23523498 -189 17 C-188.26652344 16.1440625 -187.53304687 15.288125 -186.77734375 14.40625 C-139.51011775 -39.61343686 -55.18073845 -45.55619105 0 0 Z M-112 0 C-113.093125 0.26683594 -114.18625 0.53367187 -115.3125 0.80859375 C-144.13013656 8.75463324 -167.36542672 28.99851365 -182.39282227 54.41625977 C-193.39919607 74.26494033 -197.04921095 96.56712417 -196 119 C-195.9695459 119.69673828 -195.9390918 120.39347656 -195.90771484 121.11132812 C-194.59838267 145.69334316 -184.46806564 166.2538601 -169 185 C-168.54109375 185.55655273 -168.0821875 186.11310547 -167.609375 186.68652344 C-157.22639825 199.18745629 -146.08366851 210.98497738 -134.625 222.5 C-133.66255371 223.46945557 -133.66255371 223.46945557 -132.68066406 224.45849609 C-128.83812015 228.28814556 -124.86841896 231.90923966 -120.76318359 235.45507812 C-118.74898556 237.21994176 -116.85984751 239.07372937 -115 241 C-111.87154036 244.17089998 -108.63144648 247.1256996 -105.25390625 250.02734375 C-103.04045963 251.96458906 -100.87813509 253.95084932 -98.72216797 255.95166016 C-93.59446727 260.70738639 -88.35380179 265.23799166 -82.90625 269.62890625 C-79.60000714 272.32633826 -76.35885225 275.09159933 -73.125 277.875 C-72.23772217 278.63756104 -72.23772217 278.63756104 -71.33251953 279.41552734 C-70.13855483 280.44175837 -68.94470683 281.46812519 -67.75097656 282.49462891 C-60.12479307 289.05110512 -52.45007508 295.49523797 -44.50732422 301.66650391 C-39.80316467 305.33360717 -35.20967053 309.12257947 -30.625 312.9375 C-24.48818801 318.03197631 -18.23216257 322.91250995 -11.82446289 327.66064453 C-7.34904834 330.97786694 -2.93633696 334.36250391 1.4375 337.8125 C2.01387207 338.26423584 2.59024414 338.71597168 3.18408203 339.18139648 C5.72356883 341.17681279 8.22778017 343.19245774 10.6953125 345.27734375 C11.47648438 345.92832031 12.25765625 346.57929688 13.0625 347.25 C13.71347656 347.81203125 14.36445313 348.3740625 15.03515625 348.953125 C16.97547636 350.18953823 16.97547636 350.18953823 19.35546875 349.96875 C22.85348037 348.68735136 25.42225429 346.60252169 28.25 344.25 C29.49119902 343.24617238 30.73343321 342.24362371 31.9765625 341.2421875 C32.62915039 340.71334961 33.28173828 340.18451172 33.95410156 339.63964844 C37.46556383 336.82545028 41.04584618 334.10222287 44.625 331.375 C45.33744873 330.829646 46.04989746 330.28429199 46.78393555 329.72241211 C50.08373703 327.20086212 53.3947626 324.6988341 56.74609375 322.24609375 C57.31054199 321.83117676 57.87499023 321.41625977 58.45654297 320.98876953 C59.95778526 319.88919742 61.46500616 318.79780091 62.97265625 317.70703125 C63.64167969 317.14371094 64.31070312 316.58039063 65 316 C65 315.34 65 314.68 65 314 C65.58322021 313.72615479 66.16644043 313.45230957 66.76733398 313.17016602 C68.94668822 312.02794132 70.77336191 310.77363129 72.72265625 309.27734375 C73.42140869 308.74278564 74.12016113 308.20822754 74.84008789 307.6574707 C75.57348389 307.08988037 76.30687988 306.52229004 77.0625 305.9375 C78.1906311 305.06774536 78.1906311 305.06774536 79.34155273 304.18041992 C81.5659115 302.45977033 83.78442262 300.73193801 86 299 C86.61617188 298.51885742 87.23234375 298.03771484 87.8671875 297.54199219 C92.55029918 293.90744531 92.55029918 293.90744531 97 290 C97 289.34 97 288.68 97 288 C97.56074219 287.74863281 98.12148438 287.49726563 98.69921875 287.23828125 C108.46757643 281.98094783 117.02663719 272.70712699 125.37011719 265.42285156 C126.70606026 264.25660288 128.04413712 263.09279889 129.3828125 261.9296875 C137.25855447 255.07428457 144.9780298 248.0454228 152.65234375 240.96606445 C156.24649938 237.65988703 159.91674396 234.46148724 163.671875 231.33984375 C165.2346647 230.07769089 165.2346647 230.07769089 165 228 C165.57129639 227.7539502 166.14259277 227.50790039 166.73120117 227.25439453 C169.37992243 225.78994496 171.16685594 224.0756157 173.30078125 221.9296875 C174.11353516 221.115 174.92628906 220.3003125 175.76367188 219.4609375 C176.60478516 218.60757813 177.44589844 217.75421875 178.3125 216.875 C179.14201172 216.04484375 179.97152344 215.2146875 180.82617188 214.359375 C185.19358959 209.9609338 189.40997097 205.48654613 193.45141602 200.78710938 C194.84885621 199.17442418 196.27634868 197.60487387 197.73828125 196.05078125 C218.20830995 174.27613767 232.68805302 150.62597913 234 120 C234.04761475 118.94135742 234.04761475 118.94135742 234.09619141 117.86132812 C234.71890242 101.22004472 233.07617148 85.55921368 227 70 C226.59523438 68.94039063 226.19046875 67.88078125 225.7734375 66.7890625 C215.15932121 40.15105453 194.78026191 17.83088832 168.75 5.49609375 C162.44511131 2.84688051 155.79087074 1.12019056 149.15380859 -0.48046875 C147.7351544 -0.82266963 146.32101173 -1.18424009 144.91259766 -1.56640625 C138.29668734 -3.25467683 131.8042623 -3.38457201 125 -3.375 C123.21130493 -3.37258301 123.21130493 -3.37258301 121.38647461 -3.37011719 C111.72200722 -3.23675107 103.18577591 -1.89126061 94 1 C92.95457031 1.28875 91.90914063 1.5775 90.83203125 1.875 C71.19731399 7.68500881 55.85250799 20.3854779 42 35 C41.35933594 35.66 40.71867188 36.32 40.05859375 37 C36.51368087 40.85034924 34.1408961 45.12174827 31.71484375 49.7421875 C29.62199753 53.71811859 27.44452991 57.64203401 25.25 61.5625 C24.86094482 62.26560303 24.47188965 62.96870605 24.07104492 63.69311523 C22.55308104 66.4064881 21.20992807 68.79007193 19 71 C18.66790527 70.37544922 18.33581055 69.75089844 17.99365234 69.10742188 C16.46099081 66.23454538 14.91808402 63.36729088 13.375 60.5 C12.85292969 59.51773438 12.33085937 58.53546875 11.79296875 57.5234375 C8.60487723 51.61956431 5.1926806 46.23487827 1 41 C0.28457031 40.06414062 -0.43085938 39.12828125 -1.16796875 38.1640625 C-8.78279572 28.59029552 -17.38776103 20.17439358 -28 14 C-28.93465088 13.443125 -28.93465088 13.443125 -29.88818359 12.875 C-55.10903209 -1.97102717 -83.4456094 -7.10782783 -112 0 Z " fill="#050404" transform="translate(255,57)"/>
<path d="M0 0 C0 0.33 0 0.66 0 1 C-2.22942748 0.85820962 -4.45853628 0.71140302 -6.6875 0.5625 C-7.92886719 0.48128906 -9.17023438 0.40007813 -10.44921875 0.31640625 C-14 0 -14 0 -16.3737793 -0.50708008 C-21.24392561 -1.42116629 -26.18371994 -1.22685583 -31.125 -1.25 C-32.74148437 -1.2809375 -32.74148437 -1.2809375 -34.390625 -1.3125 C-43.96558011 -1.35864436 -52.16735819 0.78551962 -61.02734375 4.2421875 C-66.23008542 6.2408645 -71.48363366 8.11026349 -77 9 C-57.67140429 -7.98573562 -23.19048242 -6.80821502 0 0 Z " fill="#BD5B5B" transform="translate(197,58)"/>
<path d="M0 0 C0.66 0.33 1.32 0.66 2 1 C1.154375 1.66 0.30875 2.32 -0.5625 3 C-3.80799943 5.69064824 -6.41907382 8.74023685 -9.12890625 11.95703125 C-11.05468497 14.05970823 -13.09330399 15.77670936 -15.3125 17.5625 C-19.12275711 20.76105239 -20.20458408 23.12807748 -21 28 C-22.32 28 -23.64 28 -25 28 C-25.12375 28.78375 -25.2475 29.5675 -25.375 30.375 C-26 33 -26 33 -28 35 C-28 35.66 -28 36.32 -28 37 C-28.66 37 -29.32 37 -30 37 C-30.66 39.31 -31.32 41.62 -32 44 C-32.66 44 -33.32 44 -34 44 C-34.144375 44.94875 -34.28875 45.8975 -34.4375 46.875 C-35 50 -35 50 -36 52 C-36.66 52 -37.32 52 -38 52 C-37.49408709 46.31751391 -35.26003858 42.18140699 -32.5 37.3125 C-31.82723022 36.11657227 -31.82723022 36.11657227 -31.14086914 34.89648438 C-27.34891243 28.31245674 -23.09873344 22.64727443 -18 17 C-17.25878906 16.12859375 -16.51757812 15.2571875 -15.75390625 14.359375 C-10.97718258 8.82930322 -5.94649052 4.24548495 0 0 Z " fill="#D5696B" transform="translate(105,75)"/>
<path d="M0 0 C3 2 3 2 3.6953125 3.91796875 C3.90800781 5.04138672 3.90800781 5.04138672 4.125 6.1875 C4.2796875 6.98414063 4.434375 7.78078125 4.59375 8.6015625 C5.12360667 11.72975476 5.59820742 14.85262475 6 18 C6.66 18 7.32 18 8 18 C8 19.65 8 21.3 8 23 C8.66 23 9.32 23 10 23 C10.66 25.64 11.32 28.28 12 31 C13.65 31.33 15.3 31.66 17 32 C17.12375 33.60875 17.12375 33.60875 17.25 35.25 C18.09593246 39.47966231 18.92416655 40.18780942 22 43 C22.74246719 44.20885453 23.44939924 45.44004242 24.125 46.6875 C25.61616373 50.04061719 25.61616373 50.04061719 28 51 C28 51.99 28 52.98 28 54 C28.66 54 29.32 54 30 54 C30 54.66 30 55.32 30 56 C20.66741602 52.88913867 12.48393495 35.7818911 7.98046875 27.24609375 C3.96997111 19.07137246 0 9.17638342 0 0 Z " fill="#CD696A" transform="translate(61,190)"/>
<path d="M0 0 C4.01734589 1.37737573 6.72741701 3.33026125 10 6 C10.99 6.33 11.98 6.66 13 7 C13.33 7.99 13.66 8.98 14 10 C14.61875 10.12375 15.2375 10.2475 15.875 10.375 C18 11 18 11 19.4375 13.4375 C21.33190593 16.54432573 22.70174616 16.73144083 26 18 C26.69937532 19.31647119 27.36729133 20.65022151 28 22 C29.32407669 22.68486725 30.65909241 23.34870203 32 24 C36.67391304 28.34782609 36.67391304 28.34782609 38 31 C33.3213426 29.52757337 30.14560138 26.77905016 26.5625 23.5625 C21.1052134 18.75681882 15.53009849 14.18737474 9.70727539 9.83032227 C5.85386914 6.88534527 2.96801512 3.7915426 0 0 Z " fill="#D36668" transform="translate(185,336)"/>
<path d="M0 0 C3.0278753 1.37630695 5.33125186 2.97913862 7.8125 5.1875 C8.43769531 5.73792969 9.06289063 6.28835937 9.70703125 6.85546875 C10.46371094 7.56316406 11.22039062 8.27085938 12 9 C12.52650146 9.49226074 13.05300293 9.98452148 13.59545898 10.49169922 C18.14033484 14.8711353 21.83905877 19.5758298 25.4375 24.75 C25.97826172 25.50410156 26.51902344 26.25820312 27.07617188 27.03515625 C27.58599609 27.76089844 28.09582031 28.48664063 28.62109375 29.234375 C29.0792749 29.88631836 29.53745605 30.53826172 30.00952148 31.20996094 C31 33 31 33 31 36 C30.01 36 29.02 36 28 36 C26.28232318 32.01811282 24.58962659 28.03520597 23 24 C22.34 24 21.68 24 21 24 C18.9251937 22.35744501 18.05879221 21.1633117 17.15625 18.65625 C15.8501541 15.65575941 14.33283365 13.96458579 12 11.6875 C11.29875 10.99011719 10.5975 10.29273437 9.875 9.57421875 C8.15274962 7.78566501 8.15274962 7.78566501 6 8 C5.87625 7.071875 5.87625 7.071875 5.75 6.125 C5.20005805 3.8234856 5.20005805 3.8234856 3 2.875 C2.34 2.58625 1.68 2.2975 1 2 C0.67 1.34 0.34 0.68 0 0 Z " fill="#D66D6F" transform="translate(443,76)"/>
<path d="M0 0 C0.33 0 0.66 0 1 0 C1.16086147 4.34325975 1.05369391 8.11740245 0.03125 12.34375 C-1.40119156 19.2212489 -1.45826986 26.12233405 -1.625 33.125 C-1.66328301 34.4765848 -1.70234027 35.82814791 -1.7421875 37.1796875 C-1.83571054 40.45299391 -1.92146198 43.72630557 -2 47 C-2.33 47 -2.66 47 -3 47 C-4.71660474 36.31585207 -4.35922292 25.64984626 -3.125 14.9375 C-3.04660889 14.2480127 -2.96821777 13.55852539 -2.88745117 12.84814453 C-2.32196445 8.38822718 -1.32413814 4.27841273 0 0 Z " fill="#D16668" transform="translate(63,136)"/>
<path d="M0 0 C0.625 1.8125 0.625 1.8125 1 4 C0.01 5.485 0.01 5.485 -1 7 C-1.66 7 -2.32 7 -3 7 C-3.77172645 11.37311655 -3.98639223 14.68453399 -3 19 C-3.33 19.66 -3.66 20.32 -4 21 C-5.65 21 -7.3 21 -9 21 C-9.77321882 18.01758453 -10.41196203 15.02419525 -11 12 C-9.515 12.99 -9.515 12.99 -8 14 C-7.50628906 13.07316406 -7.01257813 12.14632812 -6.50390625 11.19140625 C-5.85686501 9.98172045 -5.20972446 8.77208778 -4.5625 7.5625 C-4.23701172 6.95083984 -3.91152344 6.33917969 -3.57617188 5.70898438 C-1.11328125 1.11328125 -1.11328125 1.11328125 0 0 Z " fill="#F55C5D" transform="translate(283,114)"/>
<path d="M0 0 C0 0.33 0 0.66 0 1 C-1.7015625 1.38091797 -1.7015625 1.38091797 -3.4375 1.76953125 C-4.95839966 2.11689722 -6.47922929 2.46456993 -8 2.8125 C-8.74378906 2.97814453 -9.48757812 3.14378906 -10.25390625 3.31445312 C-15.35661187 4.49029398 -20.13315957 6.08122486 -25 8 C-29.61216294 9.63770277 -34.15267291 11.21817305 -39 12 C-28.91198038 3.13477063 -13.14342351 -0.26286847 0 0 Z " fill="#CC6868" transform="translate(159,55)"/>
<path d="M0 0 C7.38832026 7.38832026 7.04421234 24.60060595 7.05078125 34.5546875 C7.03402344 35.69164062 7.01726562 36.82859375 7 38 C6.67 38 6.34 38 6 38 C5.88930176 37.2793335 5.77860352 36.55866699 5.66455078 35.81616211 C5.15596789 32.52254544 4.6405439 29.23003395 4.125 25.9375 C3.95097656 24.80376953 3.77695312 23.67003906 3.59765625 22.50195312 C2.70835066 16.85321575 1.64708549 11.47067679 0 6 C-0.125 2.5625 -0.125 2.5625 0 0 Z " fill="#E07777" transform="translate(482,130)"/>
<path d="M0 0 C0 0.33 0 0.66 0 1 C-9.9 1.495 -9.9 1.495 -20 2 C-20 2.33 -20 2.66 -20 3 C-20.92941406 3.06058594 -21.85882813 3.12117188 -22.81640625 3.18359375 C-31.94146885 3.79571552 -31.94146885 3.79571552 -41 5 C-41 4.34 -41 3.68 -41 3 C-27.6063329 -1.1592164 -13.86165741 -0.29247167 0 0 Z " fill="#B35150" transform="translate(393,54)"/>
<path d="M0 0 C2.875 0.75 2.875 0.75 6 2 C6.70151152 3.3153341 7.36525925 4.65117592 8 6 C9.010625 6.639375 10.02125 7.27875 11.0625 7.9375 C14 10 14 10 14.875 12.75 C14.936875 13.86375 14.936875 13.86375 15 15 C9.60731087 14.18400099 7.19989899 10.07597342 4 6 C2.58662037 4.03445457 1.28399391 2.05439026 0 0 Z " fill="#DE686B" transform="translate(92,248)"/>
<path d="M0 0 C0.99 0 1.98 0 3 0 C2.52195014 5.45983264 0.53834121 8.8836659 -2.4375 13.3125 C-3.04948242 14.26092773 -3.04948242 14.26092773 -3.67382812 15.22851562 C-6.71524591 19.85762295 -6.71524591 19.85762295 -9 21 C-8.34 18.36 -7.68 15.72 -7 13 C-6.01 13 -5.02 13 -4 13 C-4.061875 11.8553125 -4.061875 11.8553125 -4.125 10.6875 C-4 8 -4 8 -2 5 C-1.34 5 -0.68 5 0 5 C0 3.35 0 1.7 0 0 Z " fill="#DB6768" transform="translate(477,212)"/>
<path d="M0 0 C0.66 0.33 1.32 0.66 2 1 C1.154375 1.66 0.30875 2.32 -0.5625 3 C-3.17162416 5.1548296 -5.32584418 7.47191344 -7.5 10.0625 C-10.39076415 13.46832235 -13.15474225 15.74911741 -17 18 C-15.54648518 12.83619737 -12.38155103 10.18529896 -8.5 6.75 C-7.90574219 6.20859375 -7.31148437 5.6671875 -6.69921875 5.109375 C-2.33184524 1.16592262 -2.33184524 1.16592262 0 0 Z " fill="#CD595C" transform="translate(105,75)"/>
<path d="M0 0 C0.99 0.33 1.98 0.66 3 1 C-4.65183918 7.01915657 -12.30532344 13.03560785 -20 19 C-20.33 18.01 -20.66 17.02 -21 16 C-20.360625 15.71125 -19.72125 15.4225 -19.0625 15.125 C-16.84793921 14.17176549 -16.84793921 14.17176549 -16 12 C-15.2575 11.566875 -14.515 11.13375 -13.75 10.6875 C-10.85452784 9.06502673 -10.85452784 9.06502673 -8.4375 6.375 C-6.11637182 4.11338793 -5.13888138 3.3487646 -2 3 C-2 2.34 -2 1.68 -2 1 C-1.34 0.67 -0.68 0.34 0 0 Z " fill="#D37274" transform="translate(343,351)"/>
<path d="M0 0 C2.97 0.495 2.97 0.495 6 1 C6.33 2.32 6.66 3.64 7 5 C7.99 5 8.98 5 10 5 C10.99 6.485 10.99 6.485 12 8 C14.05003955 9.19232613 14.05003955 9.19232613 16 10 C16 10.66 16 11.32 16 12 C16.99 12.33 17.98 12.66 19 13 C18.67 13.66 18.34 14.32 18 15 C15.36910313 13.07040744 12.74637362 11.13000507 10.125 9.1875 C9.37863281 8.64029297 8.63226563 8.09308594 7.86328125 7.52929688 C7.14785156 6.99755859 6.43242187 6.46582031 5.6953125 5.91796875 C5.03547363 5.43094482 4.37563477 4.9439209 3.69580078 4.44213867 C2 3 2 3 0 0 Z " fill="#D56B6C" transform="translate(239,380)"/>
<path d="M0 0 C1.32 0.33 2.64 0.66 4 1 C2.85676395 4.42970814 2.00742535 5.02407437 -0.81640625 7.13671875 C-1.96206055 8.00200195 -1.96206055 8.00200195 -3.13085938 8.88476562 C-4.33452148 9.77711914 -4.33452148 9.77711914 -5.5625 10.6875 C-6.36880859 11.29400391 -7.17511719 11.90050781 -8.00585938 12.52539062 C-9.99922176 14.02336118 -11.99731713 15.51452652 -14 17 C-14.66 16.67 -15.32 16.34 -16 16 C-15.22914063 15.39671875 -14.45828125 14.7934375 -13.6640625 14.171875 C-12.66117187 13.37265625 -11.65828125 12.5734375 -10.625 11.75 C-9.62726563 10.96109375 -8.62953125 10.1721875 -7.6015625 9.359375 C-5.26907982 7.24403035 -4.10149667 5.89308764 -3 3 C-2.34 3 -1.68 3 -1 3 C-0.67 2.01 -0.34 1.02 0 0 Z " fill="#D36D6F" transform="translate(308,376)"/>
<path d="M0 0 C0 0.99 0 1.98 0 3 C-1.0828125 3.3403125 -1.0828125 3.3403125 -2.1875 3.6875 C-6.64793636 5.76903697 -9.30210504 8.95315756 -12 13 C-12.66 13 -13.32 13 -14 13 C-14 13.99 -14 14.98 -14 16 C-15.65 16.66 -17.3 17.32 -19 18 C-17.34460834 13.74327859 -14.26236271 11.00257093 -11.0625 7.875 C-10.52431641 7.33746094 -9.98613281 6.79992187 -9.43164062 6.24609375 C-3.11545355 0 -3.11545355 0 0 0 Z " fill="#DB7273" transform="translate(317,75)"/>
<path d="M0 0 C0.33 0.66 0.66 1.32 1 2 C-8.31288344 5.79141104 -8.31288344 5.79141104 -12.5 7.0625 C-15.31582211 7.84073639 -15.31582211 7.84073639 -17 11 C-19.625 11.1875 -19.625 11.1875 -22 11 C-16.31113511 4.36299096 -8.16592226 2.20881504 0 0 Z " fill="#C56865" transform="translate(349,58)"/>
<path d="M0 0 C3.04037008 1.07307179 5.26032435 2.19241365 7.875 4.125 C11.55073255 6.33043953 13.78768918 6.33698487 18 6 C17.01 7.32 16.02 8.64 15 10 C10.52412834 9.48386345 8.12454734 7.85147631 4.6875 5 C3.80449219 4.278125 2.92148437 3.55625 2.01171875 2.8125 C1.34785156 2.214375 0.68398438 1.61625 0 1 C0 0.67 0 0.34 0 0 Z " fill="#CC7172" transform="translate(261,397)"/>
<path d="M0 0 C0.66 0.33 1.32 0.66 2 1 C-3.61 6.61 -9.22 12.22 -15 18 C-15.66 17.67 -16.32 17.34 -17 17 C-11.62789574 10.92530665 -6.3343346 5.09500827 0 0 Z " fill="#303030" transform="translate(293,57)"/>
<path d="M0 0 C1.65 0 3.3 0 5 0 C5.33 0.845625 5.66 1.69125 6 2.5625 C8.59696036 7.02602562 12.00930806 9.79607155 16 13 C15.67 13.99 15.34 14.98 15 16 C12.49599357 13.5248518 9.99748094 11.04423106 7.5 8.5625 C6.78457031 7.85544922 6.06914063 7.14839844 5.33203125 6.41992188 C4.65527344 5.74638672 3.97851562 5.07285156 3.28125 4.37890625 C2.65283203 3.7557251 2.02441406 3.13254395 1.37695312 2.49047852 C0 1 0 1 0 0 Z " fill="#C05959" transform="translate(110,268)"/>
<path d="M0 0 C2.97 0 5.94 0 9 0 C9.33 1.32 9.66 2.64 10 4 C9.34 4.66 8.68 5.32 8 6 C7.34 5.46375 6.68 4.9275 6 4.375 C1.67591745 2.39312883 -0.54535291 3.56545263 -5 5 C-5 4.34 -5 3.68 -5 3 C-3.35 2.67 -1.7 2.34 0 2 C0 1.34 0 0.68 0 0 Z " fill="#F65656" transform="translate(350,58)"/>
<path d="M0 0 C1.65 0 3.3 0 5 0 C5.2475 0.61875 5.495 1.2375 5.75 1.875 C7.26029304 4.44249816 8.36091208 4.71815729 11 6 C15.67391304 10.34782609 15.67391304 10.34782609 17 13 C12.48240045 11.5332469 9.23877673 8.98823226 5.6875 5.9375 C5.13771484 5.47794922 4.58792969 5.01839844 4.02148438 4.54492188 C2.65722044 3.39080543 1.32538998 2.1985584 0 1 C0 0.67 0 0.34 0 0 Z " fill="#D16D6D" transform="translate(206,354)"/>
<path d="M0 0 C4.77235098 4.21089792 8.28419455 9.23146586 11 15 C10.67 15.66 10.34 16.32 10 17 C7 15 7 15 6.3125 11.875 C6.209375 10.92625 6.10625 9.9775 6 9 C5.34 9 4.68 9 4 9 C4 8.34 4 7.68 4 7 C3.34 7 2.68 7 2 7 C1.34 4.69 0.68 2.38 0 0 Z " fill="#D67071" transform="translate(256,100)"/>
<path d="M0 0 C0.66 0.33 1.32 0.66 2 1 C0.71372289 2.17260611 -0.57919783 3.3379283 -1.875 4.5 C-2.59429687 5.1496875 -3.31359375 5.799375 -4.0546875 6.46875 C-6 8 -6 8 -8 8 C-8 8.66 -8 9.32 -8 10 C-9.96147874 11.38938077 -11.96166576 12.7260411 -14 14 C-10.87096774 7.51843318 -10.87096774 7.51843318 -7.375 5.4375 C-6.59125 4.963125 -5.8075 4.48875 -5 4 C-5 3.34 -5 2.68 -5 2 C-4.360625 1.855625 -3.72125 1.71125 -3.0625 1.5625 C-1.02454854 1.18992819 -1.02454854 1.18992819 0 0 Z " fill="#D06C6C" transform="translate(360,337)"/>
<path d="M0 0 C6.71404475 3.0355258 11.92640106 8.76785109 17 14 C16.67 14.66 16.34 15.32 16 16 C15.16855469 15.13375 15.16855469 15.13375 14.3203125 14.25 C13.59585937 13.5075 12.87140625 12.765 12.125 12 C11.04605469 10.88625 11.04605469 10.88625 9.9453125 9.75 C8.18829043 7.77706675 8.18829043 7.77706675 6 8 C5.87625 7.071875 5.87625 7.071875 5.75 6.125 C5.20005805 3.8234856 5.20005805 3.8234856 3 2.875 C2.34 2.58625 1.68 2.2975 1 2 C0.67 1.34 0.34 0.68 0 0 Z " fill="#DA7C7D" transform="translate(443,76)"/>
<path d="M0 0 C0.33 0 0.66 0 1 0 C1.23268915 6.28260706 0.40454548 11.88019467 -1 18 C-1.66 18 -2.32 18 -3 18 C-2.57045059 11.74892565 -1.98598493 5.95795479 0 0 Z " fill="#BC5B5F" transform="translate(63,136)"/>
<path d="M0 0 C2.28814723 2.28814723 2.75451161 3.80751622 3.6875 6.875 C3.95949219 7.73867187 4.23148437 8.60234375 4.51171875 9.4921875 C5.01692938 12.08694932 4.85561171 13.530785 4 16 C4 15.01 4 14.02 4 13 C3.34 13 2.68 13 2 13 C0.54815522 8.46298506 -0.23509196 4.81938524 0 0 Z " fill="#C66062" transform="translate(482,130)"/>
<path d="M0 0 C2.9375 0.8125 2.9375 0.8125 6 2 C6.33 2.99 6.66 3.98 7 5 C9.00016466 6.20882096 9.00016466 6.20882096 11 7 C10.67 7.99 10.34 8.98 10 10 C8.33037631 8.52417192 6.6643694 7.04425109 5 5.5625 C4.071875 4.73878906 3.14375 3.91507812 2.1875 3.06640625 C1.465625 2.38449219 0.74375 1.70257813 0 1 C0 0.67 0 0.34 0 0 Z " fill="#D16467" transform="translate(137,294)"/>
<path d="M0 0 C4.44266665 4.60133331 6.04239987 10.05431026 8 16 C7.01 16 6.02 16 5 16 C4.49440092 14.56445975 3.9957251 13.1264798 3.5 11.6875 C3.2215625 10.88699219 2.943125 10.08648437 2.65625 9.26171875 C2 7 2 7 2 4 C1.34 4 0.68 4 0 4 C0 2.68 0 1.36 0 0 Z " fill="#CF6F6F" transform="translate(474,112)"/>
<path d="M0 0 C2.3125 -0.3125 2.3125 -0.3125 5 0 C7.23283587 2.87078897 8.19351227 5.50521984 9 9 C8.51789063 8.57847656 8.03578125 8.15695312 7.5390625 7.72265625 C6.90742188 7.17480469 6.27578125 6.62695312 5.625 6.0625 C4.99851563 5.51722656 4.37203125 4.97195313 3.7265625 4.41015625 C2.04367666 2.93041376 2.04367666 2.93041376 0 2 C0 1.34 0 0.68 0 0 Z " fill="#E56D6E" transform="translate(128,285)"/>
<path d="M0 0 C3.14164535 0.73692916 6.10596396 1.55562735 9 3 C10.5625 6.1875 10.5625 6.1875 11 9 C8.03469503 7.64199529 5.70868729 6.07571737 3.25 3.9375 C2.63640625 3.41027344 2.0228125 2.88304687 1.390625 2.33984375 C0.93171875 1.89769531 0.4728125 1.45554687 0 1 C0 0.67 0 0.34 0 0 Z " fill="#DF6F6D" transform="translate(173,326)"/>
<path d="M0 0 C0 3 0 3 -1.75 4.82421875 C-2.4925 5.43910156 -3.235 6.05398438 -4 6.6875 C-4.7425 7.31011719 -5.485 7.93273437 -6.25 8.57421875 C-6.8275 9.04472656 -7.405 9.51523437 -8 10 C-8.66 9.67 -9.32 9.34 -10 9 C-9.67 8.01 -9.34 7.02 -9 6 C-8.01 5.67 -7.02 5.34 -6 5 C-6 4.34 -6 3.68 -6 3 C-5.195625 2.690625 -4.39125 2.38125 -3.5625 2.0625 C-1.10919595 1.23664655 -1.10919595 1.23664655 0 0 Z " fill="#D06E6B" transform="translate(388,313)"/>
<path d="M0 0 C0.12375 1.093125 0.2475 2.18625 0.375 3.3125 C0.75464801 7.07381802 0.75464801 7.07381802 3 10 C2.01 10 1.02 10 0 10 C-1.65 7.03 -3.3 4.06 -5 1 C-2 0 -2 0 0 0 Z " fill="#DB6062" transform="translate(78,222)"/>
<path d="M0 0 C0.625 1.8125 0.625 1.8125 1 4 C0.01 5.485 0.01 5.485 -1 7 C-1.66 7 -2.32 7 -3 7 C-3.66 9.31 -4.32 11.62 -5 14 C-5.66 14 -6.32 14 -7 14 C-5.53967505 8.68972746 -3.01679014 4.53669968 0 0 Z " fill="#D16A6B" transform="translate(283,114)"/>
<path d="M0 0 C0.33 0 0.66 0 1 0 C1.25 2.25 1.25 2.25 1 5 C-0.9375 7.125 -0.9375 7.125 -3 9 C-3.33 9.99 -3.66 10.98 -4 12 C-4.66 12 -5.32 12 -6 12 C-4.68315519 7.39104317 -2.84801255 3.85859765 0 0 Z " fill="#DD6A6B" transform="translate(290,102)"/>
<path d="M0 0 C3.51855159 1.40742064 4.38612834 2.66466523 6 6 C6.99 6.33 7.98 6.66 9 7 C8.67 7.66 8.34 8.32 8 9 C1.25 5.375 1.25 5.375 -1 2 C-0.67 1.34 -0.34 0.68 0 0 Z " fill="#DB5D60" transform="translate(200,346)"/>
<path d="M0 0 C0 2.95274099 -0.43891831 4.49058403 -1.5 7.1875 C-1.7784375 7.90292969 -2.056875 8.61835937 -2.34375 9.35546875 C-2.5603125 9.89816406 -2.776875 10.44085938 -3 11 C-4.32 10.67 -5.64 10.34 -7 10 C-2.85714286 2.42857143 -2.85714286 2.42857143 0 0 Z " fill="#E06C6F" transform="translate(87,92)"/>
<path d="M0 0 C0.66 0.33 1.32 0.66 2 1 C1.02433888 2.16959987 0.044375 3.33561177 -0.9375 4.5 C-1.48277344 5.1496875 -2.02804687 5.799375 -2.58984375 6.46875 C-3.05519531 6.9740625 -3.52054687 7.479375 -4 8 C-4.33 8 -4.66 8 -5 8 C-5.3125 5.6875 -5.3125 5.6875 -5 3 C-2.625 1.125 -2.625 1.125 0 0 Z " fill="#DB6263" transform="translate(465,235)"/>
<path d="M0 0 C0.66 0.33 1.32 0.66 2 1 C-1.3 3.64 -4.6 6.28 -8 9 C-8 6 -8 6 -6.25 3.9375 C-4.18873445 2.16252133 -2.5457607 0.93344559 0 0 Z " fill="#CC6B6D" transform="translate(290,393)"/>
<path d="M0 0 C0.66 0.99 1.32 1.98 2 3 C0.37660195 4.70884005 -1.29319053 6.37446717 -3 8 C-3.66 8 -4.32 8 -5 8 C-4.45773019 4.20411134 -2.79872437 2.52788007 0 0 Z " fill="#D76364" transform="translate(296,94)"/>
<path d="M0 0 C0.66 0.33 1.32 0.66 2 1 C-1.3 3.97 -4.6 6.94 -8 10 C-8.99 9.67 -9.98 9.34 -11 9 C-7.37 6.03 -3.74 3.06 0 0 Z " fill="#1C0B0B" transform="translate(296,390)"/>
<path d="M0 0 C0.99 0 1.98 0 3 0 C3 0.66 3 1.32 3 2 C2.34 2 1.68 2 1 2 C0.7834375 3.423125 0.7834375 3.423125 0.5625 4.875 C0 8 0 8 -1 10 C-1.66 10 -2.32 10 -3 10 C-2.49287967 6.28111761 -1.88391785 3.26545761 0 0 Z " fill="#C7605F" transform="translate(70,117)"/>
<path d="M0 0 C0.99 0 1.98 0 3 0 C2.38461538 5.53846154 2.38461538 5.53846154 0.4375 7.875 C-0.036875 8.24625 -0.51125 8.6175 -1 9 C-1.33 7.68 -1.66 6.36 -2 5 C-1.34 5 -0.68 5 0 5 C0 3.35 0 1.7 0 0 Z " fill="#D55D60" transform="translate(477,212)"/>
<path d="M0 0 C1.65 0 3.3 0 5 0 C5.28875 0.639375 5.5775 1.27875 5.875 1.9375 C6.82823451 4.15206079 6.82823451 4.15206079 9 5 C9 5.66 9 6.32 9 7 C5.18315774 5.44499019 2.80804268 2.96404505 0 0 Z " fill="#D26769" transform="translate(230,373)"/>
<path d="M0 0 C1.65 0 3.3 0 5 0 C3.60667426 3.36720387 2.0210714 4.9859524 -1 7 C-0.67 4.69 -0.34 2.38 0 0 Z " fill="#D66563" transform="translate(451,248)"/>
<path d="M0 0 C-0.928125 0.4021875 -0.928125 0.4021875 -1.875 0.8125 C-4.2995233 1.95556848 -4.2995233 1.95556848 -6 5 C-8.625 5.1875 -8.625 5.1875 -11 5 C-7.17906575 1.05170128 -5.52310605 -0.1453449 0 0 Z " fill="#DB6E6D" transform="translate(338,64)"/>
<path d="M0 0 C4.23429756 1.31061591 8.07407404 2.94356259 12 5 C8.52128379 6.15957207 7.65780355 5.77456651 4.3125 4.5625 C3.50425781 4.27503906 2.69601563 3.98757812 1.86328125 3.69140625 C1.24839844 3.46324219 0.63351563 3.23507813 0 3 C0 2.01 0 1.02 0 0 Z " fill="#D36E6F" transform="translate(212,64)"/>
<path d="M0 0 C1.15518918 0.90484792 2.29885406 1.8244206 3.4375 2.75 C4.07558594 3.26046875 4.71367187 3.7709375 5.37109375 4.296875 C7.18810554 6.19667629 7.60423197 7.43586908 8 10 C7.4225 9.38125 6.845 8.7625 6.25 8.125 C4.19750179 6.18652947 2.56633418 5.09985751 0 4 C0 2.68 0 1.36 0 0 Z " fill="#D26F6D" transform="translate(248,90)"/>
<path d="M0 0 C0.99 0.33 1.98 0.66 3 1 C3.33 2.65 3.66 4.3 4 6 C2.68 5.67 1.36 5.34 0 5 C0 3.35 0 1.7 0 0 Z " fill="#E56263" transform="translate(103,257)"/>
<path d="M0 0 C2.79872437 2.52788007 4.45773019 4.20411134 5 8 C2.525 7.01 2.525 7.01 0 6 C0 4.02 0 2.04 0 0 Z " fill="#F7525A" transform="translate(252,96)"/>
<path d="M0 0 C4.43458973 1.3937282 6.87378374 3.60582235 10 7 C9.236875 6.690625 8.47375 6.38125 7.6875 6.0625 C5.81210323 5.32106407 3.91315348 4.63771783 2 4 C0.8125 1.9375 0.8125 1.9375 0 0 Z " fill="#DA6F71" transform="translate(433,69)"/>
<path d="M0 0 C-0.5625 1.9375 -0.5625 1.9375 -2 4 C-5.625 4.75 -5.625 4.75 -9 5 C-4.16129032 0 -4.16129032 0 0 0 Z " fill="#C66565" transform="translate(120,67)"/>
<path d="M0 0 C-1.25 1.5625 -1.25 1.5625 -3 3 C-5.1875 2.6875 -5.1875 2.6875 -7 2 C-7 1.34 -7 0.68 -7 0 C-3.86650268 -1.04449911 -3.01031744 -0.93423645 0 0 Z " fill="#CB6669" transform="translate(279,404)"/>
<path d="M0 0 C0.99 0.33 1.98 0.66 3 1 C-2.75 6 -2.75 6 -5 6 C-5.33 5.01 -5.66 4.02 -6 3 C-4.68 3 -3.36 3 -2 3 C-2 2.34 -2 1.68 -2 1 C-1.34 0.67 -0.68 0.34 0 0 Z " fill="#C36565" transform="translate(343,351)"/>
<path d="M0 0 C3.37503669 1.1858237 5.64722731 2.27573689 8 5 C7.01 5.33 6.02 5.66 5 6 C3.35 4.02 1.7 2.04 0 0 Z " fill="#DB6E72" transform="translate(185,336)"/>
<path d="M0 0 C4 4.625 4 4.625 4 8 C3.01 8 2.02 8 1 8 C0.67 5.36 0.34 2.72 0 0 Z " fill="#C5605F" transform="translate(470,104)"/>
<path d="M0 0 C2.62187494 1.04874998 3.79371361 1.64931313 5.25 4.125 C5.4975 4.74375 5.745 5.3625 6 6 C4.35 5.67 2.7 5.34 1 5 C0.67 3.35 0.34 1.7 0 0 Z " fill="#DF716E" transform="translate(236,79)"/>
<path d="M0 0 C0.66 0.33 1.32 0.66 2 1 C-1.465 3.97 -1.465 3.97 -5 7 C-5.66 6.67 -6.32 6.34 -7 6 C-4.69 4.02 -2.38 2.04 0 0 Z " fill="#C97170" transform="translate(105,75)"/>
<path d="M0 0 C2.0625 0.4375 2.0625 0.4375 4 1 C3.01 1.33 2.02 1.66 1 2 C0.2884375 2.7734375 0.2884375 2.7734375 -0.4375 3.5625 C-2 5 -2 5 -6 5 C-6 4.34 -6 3.68 -6 3 C-5.195625 2.690625 -4.39125 2.38125 -3.5625 2.0625 C-1.10919595 1.23664655 -1.10919595 1.23664655 0 0 Z " fill="#F15454" transform="translate(126,64)"/>
</svg>
